<svg xmlns="http://www.w3.org/2000/svg" class="detail convertSvgInline replaced-svg" id="imgView" style="display: block;" fill="#000000" viewBox="0 0 366.305 366.305" x="0px" y="0px" width="256px" height="256px" data-id="18636" xmlns:xml="http://www.w3.org/XML/1998/namespace" xml:space="preserve" version="1.1" data-kw="shopping carts2">
<g>
	<g>
		<path fill="" d="M 160.336 292.917 c -20.167 0 -36.579 16.42 -36.579 36.579 c 0 20.167 16.412 36.579 36.579 36.579 s 36.579 -16.412 36.579 -36.579 C 196.915 309.328 180.511 292.917 160.336 292.917 Z M 160.336 349.817 c -11.201 0 -20.321 -9.112 -20.321 -20.321 c 0 -11.201 9.12 -20.321 20.321 -20.321 c 11.201 0 20.321 9.12 20.321 20.321 C 180.658 340.705 171.545 349.817 160.336 349.817 Z" />
		<path fill="" d="M 274.965 292.917 c -20.167 0 -36.579 16.42 -36.579 36.579 c 0 20.167 16.412 36.579 36.579 36.579 c 20.159 0 36.579 -16.412 36.579 -36.579 C 311.544 309.328 295.124 292.917 274.965 292.917 Z M 274.965 349.817 c -11.209 0 -20.321 -9.112 -20.321 -20.321 c 0 -11.201 9.112 -20.321 20.321 -20.321 c 11.193 0 20.321 9.12 20.321 20.321 C 295.287 340.705 286.158 349.817 274.965 349.817 Z" />
		<path fill="" d="M 364.575 92.783 c -1.536 -1.967 -3.894 -3.113 -6.397 -3.113 H 83.342 L 60.688 6.23 c -0.049 -0.179 -0.179 -0.317 -0.244 -0.488 c -0.179 -0.528 -0.447 -0.992 -0.732 -1.463 c -0.268 -0.447 -0.512 -0.886 -0.853 -1.268 c -0.333 -0.382 -0.723 -0.667 -1.13 -0.975 C 57.306 1.711 56.9 1.394 56.42 1.158 c -0.447 -0.228 -0.927 -0.341 -1.422 -0.488 c -0.528 -0.154 -1.04 -0.284 -1.601 -0.325 c -0.195 -0.008 -0.358 -0.114 -0.561 -0.114 H 8.129 C 3.642 0.231 0 3.873 0 8.36 s 3.642 8.129 8.129 8.129 h 38.489 l 22.622 83.334 l 40.627 164.579 c 0.894 3.633 4.154 6.186 7.893 6.186 h 199.768 c 3.739 0 6.991 -2.544 7.893 -6.186 l 40.643 -164.652 C 366.672 97.319 366.119 94.758 364.575 92.783 Z M 311.17 254.33 H 124.131 L 87.504 105.927 h 260.301 L 311.17 254.33 Z" />
	</g>
</g>
<g>
</g>
<g>
</g>
<g>
</g>
<g>
</g>
<g>
</g>
<g>
</g>
<g>
</g>
<g>
</g>
<g>
</g>
<g>
</g>
<g>
</g>
<g>
</g>
<g>
</g>
<g>
</g>
<g>
</g>
</svg>